<?xml version="1.0" encoding="UTF-8"?>
<!-- Logo Variation 2: Split Dual Tone (Sage + Forest) -->
<!-- Color Palette:
     Sage Green: #9AB464 | RGB(154, 180, 100)
     Forest Green: #5A7438 | RGB(90, 116, 56)
-->
<svg xmlns="http://www.w3.org/2000/svg" viewBox="0 0 400 400">
  <g id="Logo_V2">
    <!-- Top-left N portion in Sage Green -->
    <path fill="#9AB464" d="M214.61.33c3.59.25,8.56.69,12.11,1.22,2.34.35,6.51.63,8.48,1.22,2.23.66,5.69,1.05,6.06,1.22,1.18.54,4.51,2.11,4.85,3.04v203.13l-112.66-91.83-36.34.61v252.39h-1.21c-36.64-24.14-65.03-58.07-82.37-98.52-.33-.76-.55-2.01-1.21-3.65-.61-1.76-1.17-2.3-1.21-2.43-.38-1.15-.87-2.56-1.21-3.65-.36-1.18-.95-2.72-1.21-3.65-.42-1.48-.83-3.33-1.21-4.87s-.86-3.36-1.21-4.87-.92-3.46-1.21-4.87c-.36-1.72-1.02-3.87-1.21-4.87-.43-2.31-.83-4.97-1.21-7.3-.34-2.68-.98-6-1.21-8.51-.54-4.34-1.03-10.27-1.21-14.6-.2-6.36-.31-13.11,0-19.46.15-4.36.76-10.14,1.21-14.6.28-2.56.81-5.88,1.21-8.51.26-1.74.86-4.18,1.21-6.08s.81-4.16,1.21-6.08c.3-1.41.85-3.33,1.21-4.87s.81-3.36,1.21-4.87c.17-.65.82-2.3,1.21-3.65.3-1.04.84-2.47,1.21-3.65s.83-2.47,1.21-3.65c.42-1.29,1.68-4.07,2.42-6.08C35.18,77.25,74.72,34.89,126.18,13.71c.89-.37,2.16-.65,3.63-1.22,1.08-.42,2.42-.79,3.63-1.22,1.14-.41,2.46-.82,3.63-1.22s2.54-.88,3.63-1.22c1.18-.37,2.59-.91,3.63-1.22,1.48-.43,3.27-.8,4.85-1.22s3.37-.87,4.85-1.22,3.48-.94,4.85-1.22c1.91-.39,4.22-.89,6.06-1.22,2.65-.46,5.79-.84,8.48-1.22,3.79-.35,8.49-1.05,12.11-1.22,9.04-.42,20.05-.47,29.07,0Z"/>
    <!-- Bottom-right N portion in Forest Green -->
    <path fill="#5A7438" d="M383.27,120.81c.46,1.05,1.07,2.1,1.21,2.43.33.78.58,2.05,1.21,3.65.51,1.25,1.16,2.3,1.21,2.43.42,1.11.76,2.4,1.21,3.65.4,1.12.82,2.48,1.21,3.65s.89,2.58,1.21,3.65c.38,1.23.99,2.86,1.21,3.65.42,1.51.82,3.3,1.21,4.86s.9,3.43,1.21,4.86c.34,1.55.95,3.51,1.21,4.86.44,2.29.82,4.96,1.21,7.3.3,2.3,1.02,5.26,1.21,7.3.46,3.34.93,7.61,1.21,10.94.52,9.77.69,23.14,0,32.83-.18,2.8-.85,6.76-1.21,9.73-.27,2.57-.84,5.82-1.21,8.51-.23,1.68-.88,4.18-1.21,6.08-.31,1.8-.81,4.24-1.21,6.08-.3,1.4-.83,3.39-1.21,4.86-.14.54-.83,2.29-1.21,3.65-.44,1.62-.77,3.37-1.21,4.86-.31,1.04-.84,2.5-1.21,3.65s-.82,2.52-1.21,3.65c-.05.13-.64.92-1.21,2.43-.62,1.58-.88,2.86-1.21,3.65-21.03,49.9-61.94,90.7-111.45,111.87-.77.33-2.05.59-3.63,1.22-1.49.57-2.3,1.17-2.42,1.22-1.11.4-2.5.84-3.63,1.22s-2.59.9-3.63,1.22c-1.5.45-3.21.76-4.85,1.22-1.3.38-3.05,1.06-3.63,1.22-1.46.39-3.44.9-4.85,1.22-1.58.35-3.94,1.05-4.85,1.22-1.88.34-4.36.97-6.06,1.22-2.3.33-5.17.98-7.27,1.22-3,.38-6.82.99-9.69,1.22-10.85.79-27.95.85-38.76,0-2.86-.27-6.84-.75-9.69-1.22-1.94-.31-5.62-.71-7.27-1.22-2.34-.72-5.63-1.02-6.06-1.22-1.18-.54-4.51-2.11-4.85-3.04v-181.18l89.64,69.92,59.36.61V30.23c35.44,18.45,64.71,54.47,81.16,90.59Z"/>
  </g>
</svg>
